<svg xmlns="http://www.w3.org/2000/svg" viewBox="0 0 241.75 63.7"><defs><style>.cls-1,.cls-2,.cls-6,.cls-8,.cls-9{fill:#fff;}.cls-1,.cls-5,.cls-6,.cls-7,.cls-8{stroke:#231f20;}.cls-1,.cls-5,.cls-6,.cls-7,.cls-8,.cls-9{stroke-miterlimit:10;}.cls-1{stroke-width:0.41px;}.cls-3{fill:#231f20;}.cls-4{fill:#999da0;}.cls-5,.cls-7{fill:none;}.cls-5{stroke-width:0.69px;}.cls-6{stroke-width:0.41px;}.cls-7{stroke-width:0.55px;}.cls-8{stroke-width:0.99px;}.cls-9{stroke:#fff;stroke-width:0.28px;}</style></defs><title>Asset 1</title><g id="Layer_2" data-name="Layer 2"><g id="modelColor"><polygon class="cls-1" points="56.76 45.94 74.84 45.94 81.11 37.21 99.97 19.37 81.41 23.71 87.86 8.46 76.11 16.11 74.54 0.79 67.83 15.05 62.05 0.77 59.76 15.59 48.53 7.4 51.74 20.47 35.31 16.62 55.68 41.24 56.76 45.94"/><circle class="cls-2" cx="57.63" cy="37.57" r="8.83"/><circle class="cls-3" cx="58.31" cy="40.93" r="3.8"/><polygon class="cls-2" points="53.39 40.58 56.78 41.27 54.53 38.58 53.39 40.58"/><path class="cls-4" d="M50.67,32.63a8.37,8.37,0,0,1,1.1-.4c2.18-.37,4.67,4.67,5.74,6.56s3.22,4.29,4.91,3.92c2.68-.59,3.37-1.7,3.58-2.19a12.07,12.07,0,0,0,.65-2.81c0-.63-.37-7.85-8.08-8.93a10.84,10.84,0,0,0-6.33,1.73A5,5,0,0,0,50.67,32.63Z"/><circle class="cls-5" cx="57.61" cy="37.62" r="8.84"/><path class="cls-5" d="M50,33.07a1.84,1.84,0,0,1,1.55-.83c2.37.1,3.88,3.3,4.84,5s3,5.78,6,5.37c2.15-.3,3.44-1.48,3.76-2.71"/><circle class="cls-2" cx="76.82" cy="37.77" r="8.83"/><circle class="cls-3" cx="76.15" cy="41.13" r="3.8"/><polygon class="cls-2" points="81.07 40.78 77.68 41.47 79.92 38.78 81.07 40.78"/><path class="cls-4" d="M83.79,32.83a7.52,7.52,0,0,0-1.1-.39C80.51,32.06,78,37.11,77,39S73.73,43.28,72,42.91c-2.68-.59-3.38-1.7-3.59-2.19a12.61,12.61,0,0,1-.64-2.81c0-.63.36-7.84,8.08-8.93a10.8,10.8,0,0,1,6.32,1.73A5,5,0,0,1,83.79,32.83Z"/><circle class="cls-5" cx="76.85" cy="37.82" r="8.84"/><path class="cls-5" d="M84.42,33.27a1.82,1.82,0,0,0-1.54-.82c-2.37.09-3.88,3.29-4.84,5s-3,5.78-6,5.37c-2.15-.3-3.45-1.48-3.77-2.71"/><path class="cls-6" d="M30.1,30.87c.38-2.11,1.64-2.53,2.66-2.53,2,0,2.47,1.16,3.49,4.35l2,6.1h0l2-6.1c1-3.19,1.47-4.35,3.48-4.35,1,0,2.29.42,2.66,2.53L48,40c.32,1.84.67,3.86.67,4.45a1.91,1.91,0,0,1-1.89,1.92c-1.82,0-2.14-1.29-2.34-2.66l-1.2-7.87h-.05l-2.71,8.71c-.4,1.3-1,1.82-2.21,1.82s-1.82-.52-2.22-1.82l-2.71-8.71h-.05l-1.19,7.87c-.2,1.37-.52,2.66-2.34,2.66a1.9,1.9,0,0,1-1.89-1.92c0-.59.35-2.61.67-4.45Z"/><path class="cls-6" d="M87,30.48a1.92,1.92,0,0,1,2-2.14c1.07,0,1.45.47,2.79,2.16l6.69,8.38h0v-8.4a2,2,0,1,1,4,0V44.21a1.91,1.91,0,0,1-2,2.14c-1.07,0-1.47-.47-2.79-2.17L91,35.8H91v8.41a2,2,0,1,1-4,0Z"/><path class="cls-6" d="M105.52,41.55c1,0,2.29,1,4.35,1,1.57,0,2.14-.8,2.14-1.67,0-1.34-1.54-1.62-3.83-2.36-2.09-.68-4.25-1.57-4.25-4.78,0-3.86,3-5.67,6.37-5.67s5,1.12,5,2.66a1.77,1.77,0,0,1-1.79,1.89c-1.29,0-1.72-.67-3.43-.67-1.1,0-1.84.57-1.84,1.44,0,1,1,1.15,3.78,2.07,2.19.72,4.3,1.84,4.3,5.2,0,4.08-3,5.92-6.76,5.92-2.37,0-6-.92-6-2.91A2,2,0,0,1,105.52,41.55Z"/><path class="cls-6" d="M121.87,44.21a2,2,0,1,1-4,0V30.48a2,2,0,1,1,4,0v4.77h7.51V30.48a2,2,0,1,1,4,0V44.21a2,2,0,1,1-4,0V39h-7.51Z"/><path class="cls-6" d="M139.38,44.21a2,2,0,1,1-4,0V30.48a2,2,0,1,1,4,0Z"/><path class="cls-6" d="M141.32,30.48a1.92,1.92,0,0,1,2-2.14c1.07,0,1.44.47,2.78,2.16l6.7,8.38h.05v-8.4a2,2,0,1,1,4,0V44.21a1.92,1.92,0,0,1-2,2.14c-1.07,0-1.47-.47-2.79-2.17L145.4,35.8h-.05v8.41a2,2,0,1,1-4,0Z"/><path class="cls-6" d="M158.84,30.5a2,2,0,0,1,2-2H167a1.81,1.81,0,0,1,2,1.87,1.79,1.79,0,0,1-2,1.87h-4.15v3.21h3.8a1.87,1.87,0,1,1,0,3.73h-3.8v3.31h4.3a1.78,1.78,0,0,1,2,1.86,1.81,1.81,0,0,1-2,1.87h-6.32a1.94,1.94,0,0,1-2-2Z"/><polygon class="cls-1" points="0.5 10.89 6.49 9.32 8.29 3.36 11.63 8.4 17.88 8.28 14.08 13.14 16.13 19.07 10.3 16.96 5.36 20.69 5.58 14.23 0.5 10.89"/><polygon class="cls-1" points="223.95 50.78 229.93 49.22 231.74 43.25 235.07 48.29 241.32 48.17 237.53 53.03 239.57 58.96 233.75 56.85 228.81 60.59 229.03 54.12 223.95 50.78"/><polygon class="cls-1" points="36.34 3.65 38.4 4.69 40.37 3.46 40.07 5.69 41.84 7.2 39.59 7.62 38.7 9.79 37.59 7.76 35.29 7.59 36.94 5.84 36.34 3.65"/><polygon class="cls-1" points="126.05 5.3 127.6 6.08 129.08 5.16 128.85 6.84 130.19 7.97 128.49 8.29 127.82 9.92 126.98 8.39 125.25 8.27 126.5 6.94 126.05 5.3"/><polygon class="cls-1" points="90.4 50.92 92.36 52.13 94.43 51.09 93.93 53.28 95.57 54.94 93.28 55.16 92.21 57.23 91.28 55.12 89 54.75 90.8 53.15 90.4 50.92"/><polygon class="cls-1" points="192.39 24.29 193.05 25.83 194.72 26.07 193.51 27.17 193.8 28.84 192.34 28.02 190.84 28.81 191.16 27.16 189.96 25.99 191.7 25.78 192.39 24.29"/><polygon class="cls-1" points="202.96 53.95 204.13 55.15 205.78 54.78 205.03 56.24 205.89 57.7 204.24 57.45 203.11 58.72 202.83 57.07 201.29 56.4 202.85 55.59 202.96 53.95"/><polygon class="cls-1" points="220.18 45.67 221.01 46.52 222.18 46.26 221.65 47.3 222.26 48.34 221.09 48.16 220.29 49.06 220.09 47.88 219 47.41 220.1 46.83 220.18 45.67"/><polygon class="cls-1" points="21.88 55.64 23.94 56.67 25.91 55.45 25.6 57.68 27.38 59.18 25.12 59.61 24.24 61.77 23.13 59.75 20.82 59.58 22.48 57.82 21.88 55.64"/><polygon class="cls-1" points="111.67 14.55 112.85 16.53 115.17 16.57 113.71 18.28 114.39 20.5 112.26 19.64 110.35 20.99 110.51 18.68 108.66 17.3 111 16.71 111.67 14.55"/><polygon class="cls-1" points="162.12 12.28 163.63 14.02 165.92 13.63 164.8 15.58 165.87 17.64 163.62 17.18 161.99 18.85 161.72 16.56 159.65 15.53 161.85 14.53 162.12 12.28"/><polygon class="cls-1" points="178.46 53.59 178.56 55.9 180.59 57.02 178.49 57.84 178.04 60.13 176.57 58.36 174.25 58.64 175.48 56.69 174.51 54.59 176.84 55.18 178.46 53.59"/><polygon class="cls-1" points="192.75 46.53 191.63 44.52 189.31 44.42 190.81 42.75 190.18 40.51 192.29 41.42 194.24 40.13 194.02 42.42 195.83 43.86 193.48 44.38 192.75 46.53"/><polygon class="cls-1" points="178.28 17.25 178.31 18.97 179.8 19.85 178.22 20.42 177.84 22.12 176.77 20.77 175.04 20.93 175.99 19.5 175.31 17.92 177.04 18.4 178.28 17.25"/><polygon class="cls-1" points="187.34 7.03 187.89 8.21 189.2 8.36 188.28 9.24 188.53 10.54 187.38 9.93 186.23 10.58 186.45 9.29 185.49 8.4 186.84 8.21 187.34 7.03"/><polygon class="cls-1" points="95.99 3.55 96.48 4.68 97.71 4.85 96.82 5.66 97.03 6.88 95.96 6.29 94.86 6.87 95.1 5.66 94.21 4.8 95.49 4.65 95.99 3.55"/><polygon class="cls-1" points="138.31 19.4 137.74 18.31 136.5 18.23 137.32 17.36 137.01 16.15 138.13 16.67 139.18 16 139.04 17.22 139.99 18.01 138.73 18.26 138.31 19.4"/><polygon class="cls-1" points="176.28 34.06 175.56 33.07 174.32 33.17 175.01 32.18 174.53 31.04 175.71 31.38 176.66 30.57 176.69 31.8 177.74 32.44 176.53 32.88 176.28 34.06"/><polygon class="cls-1" points="26.64 13.46 27.89 13.3 28.41 12.14 28.95 13.25 30.21 13.39 29.32 14.27 29.57 15.52 28.45 14.94 27.36 15.56 27.57 14.26 26.64 13.46"/><polygon class="cls-1" points="8.68 50.49 10.35 50.28 11.05 48.73 11.77 50.21 13.46 50.4 12.26 51.58 12.61 53.24 11.11 52.47 9.65 53.3 9.93 51.57 8.68 50.49"/><polygon class="cls-1" points="63.83 58.31 65.51 58.26 66.34 56.78 66.93 58.32 68.59 58.66 67.29 59.73 67.48 61.42 66.06 60.51 64.53 61.2 64.97 59.5 63.83 58.31"/><polygon class="cls-1" points="13.54 38.62 14.79 38.52 15.37 37.4 15.85 38.53 17.11 38.73 16.17 39.56 16.36 40.83 15.27 40.19 14.15 40.76 14.43 39.47 13.54 38.62"/><polygon class="cls-1" points="45.99 53.58 47.25 53.56 47.9 52.47 48.31 53.63 49.55 53.92 48.56 54.69 48.67 55.96 47.63 55.26 46.47 55.75 46.83 54.48 45.99 53.58"/><path class="cls-2" d="M208.2,5.83a14.18,14.18,0,0,1,8.31-2c6.91.44,15.11,4.74,16.64,14.14,1,6.09-.49,12-5.27,16.07-5.17,4.4-8.23,4.3-8.23,4.3s9.76-6.87,6-19C221.14,4.73,208.2,5.83,208.2,5.83Zm15.06,13.54C228.77,36.56,209.85,40,209.85,40a19.54,19.54,0,0,0,15.54-.81c7.72-4,13.36-13.19,10.05-23.74-4-12.77-15.71-15.83-24.23-13.78a19.41,19.41,0,0,0-11.33,8S217.6,1.68,223.26,19.37Z"/><path class="cls-7" d="M199.88,9.65a19.41,19.41,0,0,1,11.33-8c8.52-2,20.21,1,24.23,13.78,3.31,10.55-2.33,19.77-10.05,23.74a19.54,19.54,0,0,1-15.54.81s18.92-3.46,13.41-20.65C217.6,1.68,199.88,9.65,199.88,9.65Z"/><path class="cls-8" d="M136.83,55.89l0,.59-.15.38-.28.5-.15.48-.5.47-.22.68-.34.56-.34.06-.12-.12.25-.29,0-.21.12-.15.31-.26.47-.83.21-.56.34-.92,0-1.21-.09-.71-.19-.21,0-.35-.21-.3V53.2l-.5-.5-.31-.51-.25-.2-.06-.24-.46-.41-.72-.42-1.33-.11-1.11.14-.81.15-.89.15-1.86.62-.28.32-.43,0-.15.48,0,.5,0,.68,0,.83-.06.62.06.65H127l.22-.39.22-.26.34.11.19.12,0,.36-.12.5-.28.47-.09.8.53.44.39.36.35.41.24.56.41.09.46.21.53.32.37.06.49.18.65.15.69,0h1.23l.47-.27v.24l-.13.2-.34.27-.21.35-.19.06-.25-.14h-1l-.8-.09-.19-.21-.56-.06-.46-.38-.41-.12-.3-.21-.28.09-.53-.18-.77.15-.93.5-1.18.39-.21.12-.87.44-.56.15-.43-.36-.56-.62-.15-.8.24-.68-.06-.14.19-.15.16-.15.36-.56-.12-.53.12-.47-.15-.36.15-.71.29-.32.49-.56v-.54l.09-.38-.09-1.06.12-.3,0-.71-.07-.32,0-1.07-.15-1.27-.16-.47-.09-.71-.21-.56-.16-1.3-.13-.35,0-.48.16-.35v-2l.1-1,.21-.41.5-.44.59-.12.3-.18.84-.09h.84l1.08-.06.8-.17.78-.12.4-.12.31.09.56.06h1.27l1.17.12.71,0,.62.41.43.8.19.71.16.74v.76l-.16.83-.06.83L135,47.23l-.47.44-.43.65-.4.15-.37.39-.5.38-.31.15.07.23.4.12.58.06.53.15.43.44.44.24.31.62.59.77.34.68.34.44.12.47.16.74,0,.5,0,.48Zm-1.46-11.11-.09-.83-.06-.29.06-.27-.44-.71-.58-.5H134l-.19-.27h-1.67l-.71.18-1,.24-1,.32-1,.39-1,.59-.38.2-.43.39-.22.56-.15,1,0,.59.15,1,0,.86.13.44v.71l.09.62.37.15.56.08.65-.08,1.33-.39,1-.09.56,0,.9-.41.43-.3.43-.26.41-.44.24-.09.28-.48.47-.35.28-.41.43-.27.06-.68.19-.38,0-.27Zm-1.05,14-.06.24-.28.12h-.37l-.78-.3-.52-.35-.78-.45-.53-.85-.43-.77-.18-.5-.1-.48v-.38l.16-.18.59-.26.68.09.9-.12.24.17.1.27-.22.3-.34.17.06.68.5.59.46.59.34.65.28.12Z"/><path class="cls-8" d="M146.32,60.85l0,.21-.21.23h-.22l-.25-.26-.12-.39-.19-.32-.12-.44-.12-.12-.19.09-.25.17-.28.33-.43.26-.28.27-.46.24-.53.2-.46.15-.4.12-.31.12-.31-.09-.44-.06-.52-.21-.47-.29-.28-.36-.21-.41,0-.65V59.2l.09-.48.28-.5.28-.47.37-.33.4-.29.53-.09.46-.06.53-.12.46-.29.59-.3.28-.12.31-.09.12-.32-.25-.44-.28-.39-.61-.56-.62-.18-.5,0-.18,0h-.31l-.38.18-.33.21-.41.06h-.46l-.53.14h-.46l-.38-.2-.27-.27,0-.38.09-.33.31-.38.34-.44.4-.33.46-.24.5-.41.47-.21.86-.17.74-.06.53.15.43.23.47.15.53.35.27.27.28.44.19.56.15.54.22.73.19.54,0,.47,0,.59.15.68.09.71.28,1.24.16.47.15.42.12.53Zm-2.1-3.22-.12-.18-.44-.12-.37,0-.34.15-.37.12-.4.21-.37.06-.34.17-.28.21-.19.27-.22.35-.06.3-.12.29v.36l.15.32.41.12h.43l.49-.12.22-.24.31-.08.71-.48.34-.23.25-.39.25-.32,0-.42Z"/><path class="cls-8" d="M150.92,46l-.06.24-.26.29-.21.3v.29l.15.27.15.21V48l-.15.38-.24.3L150,49l-.39,0-.44,0-.26-.17-.3-.21-.27-.32-.35-.42-.15-.41-.06-.3.06-.29.15-.33.21-.26.44-.24L149,46l.56-.06.54-.15.38,0,.27,0Zm.18,6.56-.09.15-.32.17-.21.18-.09.36-.06.5-.17.5.11.44-.14.36,0,.5-.06.53v.53l.06.65-.06.48v.53l.09.41.14.39-.14.47.17.41v.71l0,.27.12.41,0,.44.12.3v.29l.12.27-.15.27-.18.07-.12-.07-.14-.3-.09-.35-.06-.27-.15-.31v-.28l-.21-.47v-.42l-.06-.32v-.42l-.11-.38-.06-.92-.06-.26,0-.59,0-.39,0-.44v-.38l-.15-.3-.26-.15-.18-.2-.18-.59-.06-.33V53.79l.06-.53-.09-.56,0-.36-.12-.35.12-.36.18-.29.24-.09.35-.09.38.09.27.24.27.23h.35l.24.24.23.15.18.17Z"/><path class="cls-8" d="M161.23,52.08l0,.23-.23.15-.39.09-.44,0-.47.12h-.42l-.47,0-.59.14-.35-.11-.42.14-.32.21-.15.24v.29l0,.47-.12.24v.36l-.09.41-.17.59-.06.5v1.95l0,.47,0,.57-.12.44,0,.35-.06.59.12,1,.12.26.2.42.3.23.56.21.33,0h.67l-.17.24-.53.19h-.71l-.45-.07-.47-.15-.44-.27-.45-.16-.47-.49-.23-.5,0-.56-.12-.56-.12-.39.06-.59v-.62l-.06-.47.09-.44-.15-.59-.06-.68,0-.54,0-.5.12-.56v-2l-.41.06-.39.12-.44.15-.3.23-.29.06-.21,0-.12-.15v-.17l.06-.27.18-.18.32-.17.33,0,.41-.09.39-.06.47,0,.06-.27-.06-.44.06-.5,0-.65,0-.42-.06-.38-.12-.38v-.33l.18-.38.44-.21.3-.32.47-.18.38,0,.33.15.35.23.12.21.24.29.09.24.23.38.06.18,0,.44-.12.33-.05.38-.15.3.06.29.26.18.42.09.41-.06h1.15l.33.06.59,0,.44.12.21,0Z"/><path class="cls-8" d="M161.32,52.19l-.23.12-.24-.2.18-.24.29.06Zm6.86,7.09-.06.42-.15.47-.21.41-.32.3-.39.35-.35.12-.38.21-.33.15-.47,0h-1l-.32-.24-.42,0-.59-.15-.5-.2-.29-.24-.3-.12-.18-.35-.17-.33v-.44l.17-.44.12-.27.21-.3.26-.05.12.26-.12.33,0,.38V60l.21.33.41.15.42.17.38.15.62.06L165,61l.5-.12.41-.12.3-.18.41-.29.3-.24.23-.23,0-.42v-.5l-.15-.38-.32-.39-.44-.15-.51-.26-.2-.18-.56-.29-.39-.24-.44-.18-.27-.15-.41-.11-.27,0-.38-.21-.35-.21-.21-.38-.21-.3-.15-.41,0-.47.12-.42,0-.38.18-.44.24-.36.26-.35.06-.18.21-.27h.29l.09-.32.33-.09.35-.18.41,0,.45-.08.59-.18.53-.12h.44l.42.12.32.18.36.29.23.15.24.35.09.21v.44l-.21.33-.21.23-.38.15-.63.06-.5-.06-.42,0-.47.09-.44.21-.3.23-.29.3-.12.44.18.33.29.26.39.09.29.21.27.24.32.26.27.3.29.06.24.14.22.27.29.12.27.17.32.27.24.3,0,.44.09.5Z"/><path class="cls-9" d="M136.83,55.89l0,.59-.15.38-.28.5-.15.48-.5.47-.22.68-.34.56-.34.06-.12-.12.25-.29,0-.21.12-.15.31-.26.47-.83.21-.56.34-.92,0-1.21-.09-.71-.19-.21,0-.35-.21-.3V53.2l-.5-.5-.31-.51-.25-.2-.06-.24-.46-.41-.72-.42-1.33-.11-1.11.14-.81.15-.89.15-1.86.62-.28.32-.43,0-.15.48,0,.5,0,.68,0,.83-.06.62.06.65H127l.22-.39.22-.26.34.11.19.12,0,.36-.12.5-.28.47-.09.8.53.44.39.36.35.41.24.56.41.09.46.21.53.32.37.06.49.18.65.15.69,0h1.23l.47-.27v.24l-.13.2-.34.27-.21.35-.19.06-.25-.14h-1l-.8-.09-.19-.21-.56-.06-.46-.38-.41-.12-.3-.21-.28.09-.53-.18-.77.15-.93.5-1.18.39-.21.12-.87.44-.56.15-.43-.36-.56-.62-.15-.8.24-.68-.06-.14.19-.15.16-.15.36-.56-.12-.53.12-.47-.15-.36.15-.71.29-.32.49-.56v-.54l.09-.38-.09-1.06.12-.3,0-.71-.07-.32,0-1.07-.15-1.27-.16-.47-.09-.71-.21-.56-.16-1.3-.13-.35,0-.48.16-.35v-2l.1-1,.21-.41.5-.44.59-.12.3-.18.84-.09h.84l1.08-.06.8-.17.78-.12.4-.12.31.09.56.06h1.27l1.17.12.71,0,.62.41.43.8.19.71.16.74v.76l-.16.83-.06.83L135,47.23l-.47.44-.43.65-.4.15-.37.39-.5.38-.31.15.07.23.4.12.58.06.53.15.43.44.44.24.31.62.59.77.34.68.34.44.12.47.16.74,0,.5,0,.48Zm-1.46-11.11-.09-.83-.06-.29.06-.27-.44-.71-.58-.5H134l-.19-.27h-1.67l-.71.18-1,.24-1,.32-1,.39-1,.59-.38.2-.43.39-.22.56-.15,1,0,.59.15,1,0,.86.13.44v.71l.09.62.37.15.56.08.65-.08,1.33-.39,1-.09.56,0,.9-.41.43-.3.43-.26.41-.44.24-.09.28-.48.47-.35.28-.41.43-.27.06-.68.19-.38,0-.27Zm-1.05,14-.06.24-.28.12h-.37l-.78-.3-.52-.35-.78-.45-.53-.85-.43-.77-.18-.5-.1-.48v-.38l.16-.18.59-.26.68.09.9-.12.24.17.1.27-.22.3-.34.17.06.68.5.59.46.59.34.65.28.12Z"/><path class="cls-9" d="M146.32,60.85l0,.21-.21.23h-.22l-.25-.26-.12-.39-.19-.32-.12-.44-.12-.12-.19.09-.25.17-.28.33-.43.26-.28.27-.46.24-.53.2-.46.15-.4.12-.31.12-.31-.09-.44-.06-.52-.21-.47-.29-.28-.36-.21-.41,0-.65V59.2l.09-.48.28-.5.28-.47.37-.33.4-.29.53-.09.46-.06.53-.12.46-.29.59-.3.28-.12.31-.09.12-.32-.25-.44-.28-.39-.61-.56-.62-.18-.5,0-.18,0h-.31l-.38.18-.33.21-.41.06h-.46l-.53.14h-.46l-.38-.2-.27-.27,0-.38.09-.33.31-.38.34-.44.4-.33.46-.24.5-.41.47-.21.86-.17.74-.06.53.15.43.23.47.15.53.35.27.27.28.44.19.56.15.54.22.73.19.54,0,.47,0,.59.15.68.09.71.28,1.24.16.47.15.42.12.53Zm-2.1-3.22-.12-.18-.44-.12-.37,0-.34.15-.37.12-.4.21-.37.06-.34.17-.28.21-.19.27-.22.35-.06.3-.12.29v.36l.15.32.41.12h.43l.49-.12.22-.24.31-.08.71-.48.34-.23.25-.39.25-.32,0-.42Z"/><path class="cls-9" d="M150.92,46l-.06.24-.26.29-.21.3v.29l.15.27.15.21V48l-.15.38-.24.3L150,49l-.39,0-.44,0-.26-.17-.3-.21-.27-.32-.35-.42-.15-.41-.06-.3.06-.29.15-.33.21-.26.44-.24L149,46l.56-.06.54-.15.38,0,.27,0Zm.18,6.56-.09.15-.32.17-.21.18-.09.36-.06.5-.17.5.11.44-.14.36,0,.5-.06.53v.53l.06.65-.06.48v.53l.09.41.14.39-.14.47.17.41v.71l0,.27.12.41,0,.44.12.3v.29l.12.27-.15.27-.18.07-.12-.07-.14-.3-.09-.35-.06-.27-.15-.31v-.28l-.21-.47v-.42l-.06-.32v-.42l-.11-.38-.06-.92-.06-.26,0-.59,0-.39,0-.44v-.38l-.15-.3-.26-.15-.18-.2-.18-.59-.06-.33V53.79l.06-.53-.09-.56,0-.36-.12-.35.12-.36.18-.29.24-.09.35-.09.38.09.27.24.27.23h.35l.24.24.23.15.18.17Z"/><path class="cls-9" d="M161.23,52.08l0,.23-.23.15-.39.09-.44,0-.47.12h-.42l-.47,0-.59.14-.35-.11-.42.14-.32.21-.15.24v.29l0,.47-.12.24v.36l-.09.41-.17.59-.06.5v1.95l0,.47,0,.57-.12.44,0,.35-.06.59.12,1,.12.26.2.42.3.23.56.21.33,0h.67l-.17.24-.53.19h-.71l-.45-.07-.47-.15-.44-.27-.45-.16-.47-.49-.23-.5,0-.56-.12-.56-.12-.39.06-.59v-.62l-.06-.47.09-.44-.15-.59-.06-.68,0-.54,0-.5.12-.56v-2l-.41.06-.39.12-.44.15-.3.23-.29.06-.21,0-.12-.15v-.17l.06-.27.18-.18.32-.17.33,0,.41-.09.39-.06.47,0,.06-.27-.06-.44.06-.5,0-.65,0-.42-.06-.38-.12-.38v-.33l.18-.38.44-.21.3-.32.47-.18.38,0,.33.15.35.23.12.21.24.29.09.24.23.38.06.18,0,.44-.12.33-.05.38-.15.3.06.29.26.18.42.09.41-.06h1.15l.33.06.59,0,.44.12.21,0Z"/><path class="cls-9" d="M161.32,52.19l-.23.12-.24-.2.18-.24.29.06Zm6.86,7.09-.06.42-.15.47-.21.41-.32.3-.39.35-.35.12-.38.21-.33.15-.47,0h-1l-.32-.24-.42,0-.59-.15-.5-.2-.29-.24-.3-.12-.18-.35-.17-.33v-.44l.17-.44.12-.27.21-.3.26-.05.12.26-.12.33,0,.38V60l.21.33.41.15.42.17.38.15.62.06L165,61l.5-.12.41-.12.3-.18.41-.29.3-.24.23-.23,0-.42v-.5l-.15-.38-.32-.39-.44-.15-.51-.26-.2-.18-.56-.29-.39-.24-.44-.18-.27-.15-.41-.11-.27,0-.38-.21-.35-.21-.21-.38-.21-.3-.15-.41,0-.47.12-.42,0-.38.18-.44.24-.36.26-.35.06-.18.21-.27h.29l.09-.32.33-.09.35-.18.41,0,.45-.08.59-.18.53-.12h.44l.42.12.32.18.36.29.23.15.24.35.09.21v.44l-.21.33-.21.23-.38.15-.63.06-.5-.06-.42,0-.47.09-.44.21-.3.23-.29.3-.12.44.18.33.29.26.39.09.29.21.27.24.32.26.27.3.29.06.24.14.22.27.29.12.27.17.32.27.24.3,0,.44.09.5Z"/></g></g></svg>